<?xml version="1.0" encoding="utf-8"?>
<!-- Generator: Adobe Illustrator 25.4.1, SVG Export Plug-In . SVG Version: 6.00 Build 0)  -->
<svg version="1.1" id="Layer_1" xmlns="http://www.w3.org/2000/svg" xmlns:xlink="http://www.w3.org/1999/xlink" x="0px" y="0px"
	 viewBox="0 0 952.92 235.88" style="enable-background:new 0 0 952.92 235.88;" xml:space="preserve">
<style type="text/css">
	.st0{fill:#2BB7C4;}
	.st1{fill:#FAB900;}
	.st2{fill:#554595;}
	.st3{fill:#748EC8;}
	.st4{fill:#E3003A;}
	.st5{fill:#FFFFFF;}
</style>
<g>
	<g>
		<path class="st5" d="M139.7,34.82c-45.9,0-83.24,37.19-83.24,82.9c0,45.71,37.34,82.9,83.24,82.9c45.9,0,83.24-37.19,83.24-82.9
			C222.95,72,185.6,34.82,139.7,34.82z M139.7,185.54c-37.56,0-68.11-30.42-68.11-67.82c0-37.4,30.55-67.82,68.11-67.82
			c37.55,0,68.11,30.43,68.11,67.82C207.81,155.11,177.26,185.54,139.7,185.54z"/>
		<path class="st5" d="M321.32,140.32c0,16.62-13.58,30.14-30.27,30.14c-16.69,0-30.27-13.52-30.27-30.14V95.1h-15.14v45.22
			c0,24.93,20.37,45.22,45.41,45.22c25.04,0,45.41-20.28,45.41-45.22V95.1h-15.14V140.32z"/>
		<path class="st5" d="M593.76,95.1h-7.57c-11.64,0-22.23,4.42-30.27,11.61V95.1h-15.14v45.22v7.54v37.68h15.14v-37.68v-7.54
			c0-16.62,13.58-30.15,30.27-30.15h7.57V95.1z"/>
		<path class="st5" d="M427.27,106.71C419.23,99.52,408.63,95.1,397,95.1c-25.04,0-45.41,20.28-45.41,45.22
			c0,24.93,20.37,45.22,45.41,45.22c11.63,0,22.22-4.42,30.27-11.61v11.61h15.14V95.1h-15.14V106.71z M397,170.46
			c-16.69,0-30.27-13.52-30.27-30.14c0-16.62,13.58-30.14,30.27-30.14c16.69,0,30.27,13.52,30.27,30.14
			C427.27,156.94,413.69,170.46,397,170.46z"/>
		<rect x="465.11" y="49.89" class="st5" width="15.14" height="135.65"/>
		<path class="st5" d="M639.16,95.1c-22.46,0-41.16,16.32-44.78,37.68h-0.63v15.07h0.63c3.61,21.36,22.32,37.68,44.78,37.68
			c12.64,0,24.81-5.32,33.38-14.59l5.13-5.54l-11.13-10.21l-5.13,5.55c-5.72,6.18-13.82,9.72-22.25,9.72
			c-14.08,0-25.95-9.62-29.31-22.61h74.72v-7.54C684.57,115.39,664.2,95.1,639.16,95.1z M609.85,132.79
			c3.37-12.99,15.23-22.61,29.31-22.61c14.08,0,25.94,9.62,29.31,22.61H609.85z"/>
		<path class="st5" d="M896.46,140.32c0-24.93-20.37-45.22-45.41-45.22c-22.46,0-41.16,16.33-44.78,37.68h-0.63v15.07h0.63
			c3.61,21.36,22.32,37.68,44.78,37.68c12.64,0,24.81-5.32,33.38-14.59l5.13-5.54l-11.13-10.21l-5.13,5.55
			c-5.71,6.18-13.82,9.72-22.25,9.72c-14.08,0-25.95-9.62-29.31-22.61h74.72V140.32z M821.74,132.78
			c3.37-12.99,15.23-22.61,29.31-22.61c14.08,0,25.94,9.62,29.31,22.61H821.74z"/>
		<path class="st5" d="M775.38,106.71c-8.04-7.19-18.63-11.61-30.27-11.61c-25.04,0-45.41,20.28-45.41,45.22
			c0,24.93,20.37,45.22,45.41,45.22c11.63,0,22.22-4.42,30.27-11.61v11.61h15.14V49.89h-15.14V106.71z M745.11,170.46
			c-16.69,0-30.27-13.52-30.27-30.14c0-16.62,13.58-30.14,30.27-30.14c16.69,0,30.27,13.52,30.27,30.14
			C775.38,156.94,761.8,170.46,745.11,170.46z"/>
		<rect x="502.95" y="95.1" class="st5" width="15.14" height="90.43"/>
		<rect x="502.95" y="64.96" class="st5" width="15.14" height="22.61"/>
	</g>
	<polygon class="st1" points="207.35,201.07 146.81,140.78 162.87,124.79 223.41,185.08 	"/>
</g>
</svg>
