<?xml version="1.0" encoding="utf-8"?>
<!-- Generator: Adobe Illustrator 25.4.1, SVG Export Plug-In . SVG Version: 6.00 Build 0)  -->
<svg version="1.1" id="Layer_1" xmlns="http://www.w3.org/2000/svg" xmlns:xlink="http://www.w3.org/1999/xlink" x="0px" y="0px"
	 viewBox="0 0 166.49 165.79" style="enable-background:new 0 0 166.49 165.79;" xml:space="preserve">
<style type="text/css">
	.st0{fill:none;stroke:#000000;stroke-miterlimit:10;}
	.st1{fill:#2BB7C4;}
	.st2{fill:#FAB900;}
	.st3{fill:#554595;}
	.st4{fill:#748EC8;}
	.st5{fill:#E3003A;}
	.st6{fill:#FFFFFF;}
</style>
<path class="st3" d="M83.24,0C37.34,0,0,37.19,0,82.9c0,45.71,37.34,82.9,83.24,82.9c45.9,0,83.24-37.19,83.24-82.9
	C166.49,37.19,129.14,0,83.24,0z M83.24,150.72c-37.56,0-68.11-30.42-68.11-67.82c0-37.4,30.55-67.82,68.11-67.82
	c37.55,0,68.11,30.43,68.11,67.82C151.35,120.29,120.8,150.72,83.24,150.72z"/>
<polygon class="st2" points="150.89,166.25 90.35,105.96 106.41,89.98 166.94,150.26 "/>
</svg>
